<?xml version="1.0" encoding="UTF-8"?>
<svg id="svg5" width="500" height="100" version="1.1" viewBox="0 0 500 100" xmlns="http://www.w3.org/2000/svg">
 <g id="layer1">
  <path id="alert-1-ok" fill="#dddddd" d="m50 10a40 40 0 0 0-40 40 40 40 0 0 0 40 40 40 40 0 0 0 40-40 40 40 0 0 0-40-40zm0 2a38 38 0 0 1 38 38 38 38 0 0 1-38 38 38 38 0 0 1-38-38 38 38 0 0 1 38-38zm0 2a36 36 0 0 0-36 36 36 36 0 0 0 36 36 36 36 0 0 0 36-36 36 36 0 0 0-36-36zm24.694 11.306 1.3125 1.875c-5.35 4.025-11.3 10.225-17.85 18.6s-11.55 16.2-15 23.475l-2.775 1.875c-2.3 1.6-3.8625 2.7875-4.6875 3.5625-0.325-1.175-1.0375-3.1-2.1375-5.775l-1.05-2.4375c-1.5-3.5-2.9-6.0875-4.2-7.7625-1.275-1.675-2.7125-2.7875-4.3125-3.3375 2.7-2.85 5.175-4.275 7.425-4.275 1.925 0 4.0625 2.6125 6.4125 7.8375l1.1625 2.625c4.225-7.125 9.65-14.05 16.275-20.775s13.1-11.888 19.425-15.488z"/>
  <path id="alert-1-warn" fill="#dddddd" d="m48.4 11.206-38.4 77.186c0 1.608 0 1.608 1.6 1.608h76.8c1.6 0 1.6 0 1.6-1.608l-38.4-77.186c-1.6-1.608-1.6-1.608-3.2 0zm1.837 2.8313 36 72.362h-72zm0 5.2434-32 64.322h64zm-3.2672 14.323c1.4301-1.4934 4.6301-1.4934 6.2301 0.11464v32.161c-1.6 1.608-4.8 1.608-6.4 0zm-0.16987 38.708h6.4v6.4322h-6.4z" stroke-linejoin="round" stroke-width="6.0624"/>
  <path id="alert-1-error" fill="#dddddd" d="m10 18v64c0 8 0 8 8 8h64c8 0 8 0 8-8v-64c0-8 0-8-8-8h-64c-8 0-8 0-8 8zm4-4h72v72h-72zm4 12v48c0 8.0573-0.10514 8 8 8h48c8 0 8 0 8-8v-48c0-8 0-8-8-8h-48c-8 0-8 0-8 8zm28.8 8c1.6-1.6 4.8-1.6 6.4 0v32c-1.6 1.6-4.8 1.6-6.4 0zm0 38.4h6.4v6.4h-6.4z" stroke-linejoin="round" stroke-width="6.0472"/>
  <path id="alert-2-ok" fill="#dddddd" d="m150 10a40 40 0 0 0-40 40 40 40 0 0 0 40 40 40 40 0 0 0 40-40 40 40 0 0 0-40-40zm0 2a38 38 0 0 1 38 38 38 38 0 0 1-38 38 38 38 0 0 1-38-38 38 38 0 0 1 38-38zm0 2a36 36 0 0 0-36 36 36 36 0 0 0 36 36 36 36 0 0 0 36-36 36 36 0 0 0-36-36zm24.694 11.306 1.3125 1.875c-5.35 4.025-11.3 10.225-17.85 18.6-6.55 8.375-11.55 16.2-15 23.475l-2.775 1.875c-2.3 1.6-3.8625 2.7875-4.6875 3.5625-0.325-1.175-1.0375-3.1-2.1375-5.775l-1.05-2.4375c-1.5-3.5-2.9-6.0875-4.2-7.7625-1.275-1.675-2.7125-2.7875-4.3125-3.3375 2.7-2.85 5.175-4.275 7.425-4.275 1.925 0 4.0625 2.6125 6.4125 7.8375l1.1625 2.625c4.225-7.125 9.65-14.05 16.275-20.775 6.625-6.725 13.1-11.888 19.425-15.488z"/>
  <path id="alert-2-warn" fill="#dddddd" d="m148.4 11.206-38.4 77.186c0 1.608 0 1.608 1.6 1.608h76.8c1.6 0 1.6 0 1.6-1.608l-38.4-77.186c-1.6-1.608-1.6-1.608-3.2 1e-6zm1.837 2.8313 36 72.362h-72zm0 5.2434-32 64.322h64zm-3.2672 14.323c1.4301-1.4934 4.6301-1.4934 6.2301 0.11464v32.161c-1.6 1.608-4.8 1.608-6.4 0zm-0.16987 38.708h6.4v6.4322h-6.4z" stroke-linejoin="round" stroke-width="6.0624"/>
  <path id="alert-2-error" fill="#dddddd" d="m110 18v64c0 8 0 8 8 8h64c8 0 8 0 8-8v-64c0-8 0-8-8-8h-64c-8 0-8 0-8 8zm4-4h72v72h-72zm4 12v48c0 8.0573-0.10514 8 8 8h48c8 0 8 0 8-8v-48c0-8 0-8-8-8h-48c-8 0-8 0-8 8zm28.8 8c1.6-1.6 4.8-1.6 6.4 0v32c-1.6 1.6-4.8 1.6-6.4 0zm0 38.4h6.4v6.4h-6.4z" stroke-linejoin="round" stroke-width="6.0472"/>
  <path id="alert-3-ok" fill="#dddddd" d="m250 10a40 40 0 0 0-40 40 40 40 0 0 0 40 40 40 40 0 0 0 40-40 40 40 0 0 0-40-40zm0 2a38 38 0 0 1 38 38 38 38 0 0 1-38 38 38 38 0 0 1-38-38 38 38 0 0 1 38-38zm0 2a36 36 0 0 0-36 36 36 36 0 0 0 36 36 36 36 0 0 0 36-36 36 36 0 0 0-36-36zm24.694 11.306 1.3125 1.875c-5.35 4.025-11.3 10.225-17.85 18.6s-11.55 16.2-15 23.475l-2.775 1.875c-2.3 1.6-3.8625 2.7875-4.6875 3.5625-0.325-1.175-1.0375-3.1-2.1375-5.775l-1.05-2.4375c-1.5-3.5-2.9-6.0875-4.2-7.7625-1.275-1.675-2.7125-2.7875-4.3125-3.3375 2.7-2.85 5.175-4.275 7.425-4.275 1.925 0 4.0625 2.6125 6.4125 7.8375l1.1625 2.625c4.225-7.125 9.65-14.05 16.275-20.775s13.1-11.888 19.425-15.488z"/>
  <path id="alert-3-warn" fill="#dddddd" d="m248.4 11.206-38.4 77.186c0 1.608 0 1.608 1.6 1.608h76.8c1.6 0 1.6 0 1.6-1.608l-38.4-77.186c-1.6-1.608-1.6-1.608-3.2 0zm1.837 2.8313 36 72.362h-72zm0 5.2434-32 64.322h64zm-3.2672 14.323c1.4301-1.4934 4.6301-1.4934 6.2301 0.11464v32.161c-1.6 1.608-4.8 1.608-6.4 0zm-0.16987 38.708h6.4v6.4322h-6.4z" stroke-linejoin="round" stroke-width="6.0624"/>
  <path id="alert-3-error" fill="#dddddd" d="m210 18v64c0 8 0 8 8 8h64c8 0 8 0 8-8v-64c0-8 0-8-8-8h-64c-8 0-8 0-8 8zm4-4h72v72h-72zm4 12v48c0 8.0573-0.10514 8 8 8h48c8 0 8 0 8-8v-48c0-8 0-8-8-8h-48c-8 0-8 0-8 8zm28.8 8c1.6-1.6 4.8-1.6 6.4 0v32c-1.6 1.6-4.8 1.6-6.4 0zm0 38.4h6.4v6.4h-6.4z" stroke-linejoin="round" stroke-width="6.0472"/>
  <path id="alert-4-ok" fill="#dddddd" d="m350 10a40 40 0 0 0-40 40 40 40 0 0 0 40 40 40 40 0 0 0 40-40 40 40 0 0 0-40-40zm0 2a38 38 0 0 1 38 38 38 38 0 0 1-38 38 38 38 0 0 1-38-38 38 38 0 0 1 38-38zm0 2a36 36 0 0 0-36 36 36 36 0 0 0 36 36 36 36 0 0 0 36-36 36 36 0 0 0-36-36zm24.69 11.306 1.32 1.875c-5.35 4.025-11.3 10.225-17.85 18.6s-11.55 16.2-15 23.475l-2.78 1.875c-2.3 1.6-3.86 2.7875-4.69 3.5625-0.32-1.175-1.03-3.1-2.13-5.775l-1.05-2.4375c-1.5-3.5-2.9-6.0875-4.2-7.7625-1.28-1.675-2.72-2.7875-4.32-3.3375 2.7-2.85 5.18-4.275 7.43-4.275 1.92 0 4.06 2.6125 6.41 7.8375l1.16 2.625c4.23-7.125 9.65-14.05 16.28-20.775 6.62-6.725 13.1-11.888 19.42-15.488z"/>
  <path id="alert-4-warn" fill="#dddddd" d="m348.4 11.206-38.4 77.186c0 1.608 0 1.608 1.6 1.608h76.8c1.6 0 1.6 0 1.6-1.608l-38.4-77.186c-1.6-1.608-1.6-1.608-3.2 0zm1.84 2.8313 36 72.362h-72zm0 5.2434-32 64.322h64zm-3.27 14.323c1.43-1.4934 4.63-1.4934 6.23 0.11464v32.161c-1.6 1.608-4.8 1.608-6.4 0zm-0.17 38.708h6.4v6.4322h-6.4z" stroke-linejoin="round" stroke-width="6.0624"/>
  <path id="alert-4-error" fill="#dddddd" d="m310 18v64c0 8 0 8 8 8h64c8 0 8 0 8-8v-64c0-8 0-8-8-8h-64c-8 0-8 0-8 8zm4-4h72v72h-72zm4 12v48c0 8.0573-0.11 8 8 8h48c8 0 8 0 8-8v-48c0-8 0-8-8-8h-48c-8 0-8 0-8 8zm28.8 8c1.6-1.6 4.8-1.6 6.4 0v32c-1.6 1.6-4.8 1.6-6.4 0zm0 38.4h6.4v6.4h-6.4z" stroke-linejoin="round" stroke-width="6.0472"/>
  <path id="alert-5-ok" fill="#dddddd" d="m450 10a40 40 0 0 0-40 40 40 40 0 0 0 40 40 40 40 0 0 0 40-40 40 40 0 0 0-40-40zm0 2a38 38 0 0 1 38 38 38 38 0 0 1-38 38 38 38 0 0 1-38-38 38 38 0 0 1 38-38zm0 2a36 36 0 0 0-36 36 36 36 0 0 0 36 36 36 36 0 0 0 36-36 36 36 0 0 0-36-36zm24.694 11.306 1.3125 1.875c-5.35 4.025-11.3 10.225-17.85 18.6s-11.55 16.2-15 23.475l-2.775 1.875c-2.3 1.6-3.8625 2.7875-4.6875 3.5625-0.325-1.175-1.0375-3.1-2.1375-5.775l-1.05-2.4375c-1.5-3.5-2.9-6.0875-4.2-7.7625-1.275-1.675-2.7125-2.7875-4.3125-3.3375 2.7-2.85 5.175-4.275 7.425-4.275 1.925 0 4.0625 2.6125 6.4125 7.8375l1.1625 2.625c4.225-7.125 9.65-14.05 16.275-20.775s13.1-11.888 19.425-15.488z"/>
  <path id="alert-5-warn" fill="#dddddd" d="m448.4 11.206-38.4 77.186c0 1.608 0 1.608 1.6 1.608h76.8c1.6 0 1.6 0 1.6-1.608l-38.4-77.186c-1.6-1.608-1.6-1.608-3.2 0zm1.837 2.8313 36 72.362h-72zm0 5.2434-32 64.322h64zm-3.2672 14.323c1.4301-1.4934 4.6301-1.4934 6.2301 0.11464v32.161c-1.6 1.608-4.8 1.608-6.4 0zm-0.16987 38.708h6.4v6.4322h-6.4z" stroke-linejoin="round" stroke-width="6.0624"/>
  <path id="alert-5-error" fill="#dddddd" d="m410 18v64c0 8 0 8 8 8h64c8 0 8 0 8-8v-64c0-8 0-8-8-8h-64c-8 0-8 0-8 8zm4-4h72v72h-72zm4 12v48c0 8.0573-0.10514 8 8 8h48c8 0 8 0 8-8v-48c0-8 0-8-8-8h-48c-8 0-8 0-8 8zm28.8 8c1.6-1.6 4.8-1.6 6.4 0v32c-1.6 1.6-4.8 1.6-6.4 0zm0 38.4h6.4v6.4h-6.4z" stroke-linejoin="round" stroke-width="6.0472"/>
 </g>
</svg>